<svg width="30" height="30" viewBox="0 0 30 30" fill="none" xmlns="http://www.w3.org/2000/svg">
<path d="M15 4.0625C8.95937 4.0625 4.0625 8.95937 4.0625 15C4.0625 21.0406 8.95937 25.9375 15 25.9375C21.0406 25.9375 25.9375 21.0406 25.9375 15C25.9375 8.95937 21.0406 4.0625 15 4.0625ZM2.5 15C2.5 8.09625 8.09625 2.5 15 2.5C21.9037 2.5 27.5 8.09625 27.5 15C27.5 21.9037 21.9037 27.5 15 27.5C8.09625 27.5 2.5 21.9037 2.5 15ZM15 12.5C15.4312 12.5 15.7812 12.85 15.7812 13.2812V21.0938C15.7812 21.301 15.6989 21.4997 15.5524 21.6462C15.4059 21.7927 15.2072 21.875 15 21.875C14.7928 21.875 14.5941 21.7927 14.4476 21.6462C14.3011 21.4997 14.2188 21.301 14.2188 21.0938V13.2812C14.2188 12.85 14.5688 12.5 15 12.5ZM15 10.625C15.3315 10.625 15.6495 10.4933 15.8839 10.2589C16.1183 10.0245 16.25 9.70652 16.25 9.375C16.25 9.04348 16.1183 8.72554 15.8839 8.49112C15.6495 8.2567 15.3315 8.125 15 8.125C14.6685 8.125 14.3505 8.2567 14.1161 8.49112C13.8817 8.72554 13.75 9.04348 13.75 9.375C13.75 9.70652 13.8817 10.0245 14.1161 10.2589C14.3505 10.4933 14.6685 10.625 15 10.625Z" fill="#4CC5C0"/>
</svg>
